<?xml version="1.0" standalone="no"?>
<!DOCTYPE svg PUBLIC "-//W3C//DTD SVG 20010904//EN"
 "http://www.w3.org/TR/2001/REC-SVG-20010904/DTD/svg10.dtd">
<svg version="1.0" xmlns="http://www.w3.org/2000/svg"
 width="700.000000pt" height="700.000000pt" viewBox="0 0 700.000000 700.000000"
 preserveAspectRatio="xMidYMid meet">
<metadata>
Created by potrace 1.14, written by Peter Selinger 2001-2017
</metadata>
<g transform="translate(0.000000,700.000000) scale(0.100000,-0.100000)"
fill="#000000" stroke="none">
<path d="M4047 5683 c-3 -2 -186 -12 -336 -18 -68 -3 -133 -11 -144 -16 -18
-10 -19 -19 -13 -147 8 -196 18 -392 20 -427 l3 -30 74 1 c80 1 375 15 424 19
17 2 60 3 97 4 l68 1 -5 78 c-2 42 -7 122 -10 177 -19 387 -12 365 -112 362
-35 -1 -65 -3 -66 -4z"/>
<path d="M1216 5648 c-11 -19 -14 -79 -13 -310 l1 -288 331 0 331 0 0 296 c-1
281 -2 296 -20 310 -16 11 -76 14 -318 14 l-298 0 -14 -22z"/>
<path d="M4995 5290 c-55 -11 -433 -82 -515 -96 -91 -16 -130 -27 -140 -39
-11 -13 -8 -79 5 -125 2 -8 6 -26 9 -40 2 -14 23 -124 46 -245 23 -121 45
-238 49 -260 4 -22 12 -39 18 -38 6 1 39 7 74 13 35 5 75 12 89 15 36 7 228
43 270 50 57 10 183 34 207 39 11 2 42 8 67 11 49 8 50 9 37 70 -5 22 -12 56
-15 75 -3 19 -8 46 -11 60 -2 14 -18 97 -35 185 -56 294 -60 310 -77 323 -19
13 -21 13 -78 2z"/>
<path d="M2020 5240 c-12 -8 -15 -41 -15 -197 l0 -188 315 0 315 0 2 183 c1
149 -2 185 -14 197 -12 13 -62 15 -301 15 -163 0 -293 -4 -302 -10z"/>
<path d="M2767 5012 c-16 -17 -17 -159 -17 -1839 0 -1681 1 -1822 17 -1834 24
-21 678 -23 711 -2 l22 14 -2 1830 c-3 1614 -5 1831 -18 1839 -9 6 -159 10
-356 10 -318 0 -342 -1 -357 -18z m628 -1386 c2 -12 3 -255 3 -542 l-1 -521
-271 1 -271 1 -3 540 -2 541 270 0 c265 0 271 0 275 -20z"/>
<path d="M4146 5023 c-1 -1 -53 -4 -116 -7 -258 -12 -395 -19 -443 -25 -5 -1
-6 -49 -2 -108 3 -60 8 -148 10 -198 3 -49 7 -128 9 -175 3 -47 8 -137 11
-200 6 -129 13 -264 20 -390 3 -47 8 -130 10 -185 6 -120 13 -257 20 -380 3
-49 7 -135 10 -190 5 -96 10 -197 20 -370 2 -44 7 -141 11 -215 4 -74 8 -155
9 -180 2 -25 6 -112 10 -195 4 -82 9 -153 12 -158 2 -4 39 -5 81 -2 42 2 129
7 192 10 102 4 311 15 365 19 16 1 20 8 19 31 -1 47 -15 325 -19 375 -1 25 -6
106 -10 180 -8 144 -9 182 -19 385 -4 72 -9 162 -11 200 -7 121 -15 276 -20
380 -3 55 -7 138 -10 185 -2 47 -7 144 -11 215 -3 72 -7 157 -9 190 -2 33 -7
114 -10 180 -4 66 -8 149 -10 185 -3 36 -7 126 -11 200 -5 115 -8 166 -13 237
-1 7 -18 10 -47 10 -25 -1 -47 -3 -48 -4z"/>
<path d="M1206 5000 c-2 -3 -3 -666 -2 -1475 l1 -1470 331 -3 330 -2 0 1477
-1 1478 -328 0 c-181 0 -330 -2 -331 -5z"/>
<path d="M2011 4800 c-4 -3 -7 -686 -7 -1517 l0 -1513 317 0 316 0 1 1518 0
1518 -310 -1 c-170 0 -313 -2 -317 -5z"/>
<path d="M5209 4536 c-2 -2 -20 -6 -39 -9 -19 -3 -87 -15 -150 -27 -63 -12
-124 -23 -135 -24 -11 -2 -83 -15 -160 -29 -77 -14 -153 -28 -170 -31 -94 -17
-94 -17 -75 -99 5 -23 23 -116 40 -207 17 -91 35 -185 40 -210 9 -45 55 -289
65 -345 2 -16 7 -41 10 -55 7 -30 32 -164 40 -205 2 -16 7 -41 10 -55 3 -14 9
-50 15 -80 6 -30 12 -66 15 -80 2 -14 12 -63 21 -110 8 -47 22 -116 29 -155 8
-38 17 -86 20 -105 6 -38 44 -233 76 -395 11 -55 22 -116 25 -135 3 -19 11
-62 18 -95 14 -69 9 -68 151 -40 38 7 192 36 225 41 14 3 59 11 100 19 41 8
93 17 115 21 22 3 56 9 75 15 19 5 46 9 60 9 51 1 52 7 25 146 -14 71 -39 201
-55 289 -16 88 -31 171 -34 185 -18 90 -86 450 -90 475 -3 17 -14 75 -25 130
-11 55 -29 152 -41 215 -12 63 -25 135 -30 160 -6 25 -12 56 -14 70 -2 14 -11
63 -21 110 -9 47 -23 119 -30 160 -8 41 -17 89 -20 105 -7 34 -45 239 -51 270
-13 72 -20 85 -35 71z"/>
<path d="M5515 2084 c-104 -20 -380 -71 -425 -79 -177 -31 -170 -25 -151 -110
5 -22 12 -57 15 -77 3 -21 10 -57 15 -80 9 -40 15 -71 27 -143 3 -16 7 -37 9
-45 2 -8 7 -31 10 -50 17 -101 36 -175 47 -182 16 -10 18 -10 75 2 51 10 74
14 168 30 33 5 154 28 270 50 223 42 240 49 231 100 -2 14 -16 86 -31 160 -14
74 -28 149 -31 165 -11 63 -45 241 -49 263 -7 28 -21 27 -180 -4z"/>
<path d="M4277 2023 c-1 0 -58 -4 -127 -7 -69 -4 -177 -9 -240 -12 -63 -4
-124 -6 -135 -6 -21 1 -47 -16 -41 -27 4 -5 11 -126 21 -331 12 -259 16 -295
33 -308 17 -13 39 -13 352 4 224 11 264 15 278 26 14 12 13 84 -3 378 -11 184
-14 235 -14 262 -1 26 -2 27 -62 25 -33 -1 -61 -3 -62 -4z"/>
<path d="M1210 2000 c-4 -3 -7 -150 -6 -327 1 -250 4 -325 14 -335 18 -18 606
-20 630 -2 15 11 17 46 18 334 0 206 -3 323 -10 327 -12 8 -634 10 -646 3z"/>
<path d="M2009 1720 c-1 -3 -3 -85 -4 -183 -1 -128 2 -183 11 -195 11 -15 42
-17 299 -18 216 0 291 3 304 13 16 11 18 30 19 185 0 95 -1 180 -4 188 -3 13
-47 15 -314 15 -170 0 -311 -2 -311 -5z"/>
</g>
</svg>
